<svg width="24" height="24" viewBox="0 0 24 24" fill="none" xmlns="http://www.w3.org/2000/svg">
<path d="M1 21V17C1 16.4333 1.196 15.9583 1.588 15.575C1.98 15.1917 2.45067 15 3 15H6.275C6.60833 15 6.925 15.0833 7.225 15.25C7.525 15.4167 7.76667 15.6417 7.95 15.925C8.43333 16.575 9.02933 17.0833 9.738 17.45C10.4467 17.8167 11.2007 18 12 18C12.8167 18 13.5793 17.8167 14.288 17.45C14.9967 17.0833 15.584 16.575 16.05 15.925C16.2667 15.6417 16.521 15.4167 16.813 15.25C17.105 15.0833 17.409 15 17.725 15H21C21.5667 15 22.0417 15.1917 22.425 15.575C22.8083 15.9583 23 16.4333 23 17V21H16V18.725C15.4167 19.1417 14.7873 19.4583 14.112 19.675C13.4367 19.8917 12.7327 20 12 20C11.2833 20 10.5833 19.8877 9.9 19.663C9.21667 19.4383 8.58333 19.1173 8 18.7V21H1ZM4 14C3.16667 14 2.45833 13.7083 1.875 13.125C1.29167 12.5417 1 11.8333 1 11C1 10.15 1.29167 9.43767 1.875 8.863C2.45833 8.28833 3.16667 8.00067 4 8C4.85 8 5.56267 8.28767 6.138 8.863C6.71333 9.43833 7.00067 10.1507 7 11C7 11.8333 6.71267 12.5417 6.138 13.125C5.56333 13.7083 4.85067 14 4 14ZM20 14C19.1667 14 18.4583 13.7083 17.875 13.125C17.2917 12.5417 17 11.8333 17 11C17 10.15 17.2917 9.43767 17.875 8.863C18.4583 8.28833 19.1667 8.00067 20 8C20.85 8 21.5627 8.28767 22.138 8.863C22.7133 9.43833 23.0007 10.1507 23 11C23 11.8333 22.7127 12.5417 22.138 13.125C21.5633 13.7083 20.8507 14 20 14ZM12 12C10.8667 10.9667 9.94167 10.0957 9.225 9.387C8.50833 8.67833 7.95 8.066 7.55 7.55C7.15 7.034 6.875 6.58 6.725 6.188C6.575 5.796 6.5 5.4 6.5 5C6.5 4.16667 6.79167 3.45833 7.375 2.875C7.95833 2.29167 8.675 2 9.525 2C9.99167 2 10.4417 2.10433 10.875 2.313C11.3083 2.52167 11.6833 2.80067 12 3.15C12.3167 2.8 12.6917 2.521 13.125 2.313C13.5583 2.105 14.0083 2.00067 14.475 2C15.325 2 16.0417 2.29167 16.625 2.875C17.2083 3.45833 17.5 4.16667 17.5 5C17.5 5.4 17.425 5.796 17.275 6.188C17.125 6.58 16.85 7.034 16.45 7.55C16.05 8.066 15.4917 8.67867 14.775 9.388C14.0583 10.0973 13.1333 10.968 12 12Z" fill="white"/>
</svg>
