<svg width="24" height="24" viewBox="0 0 24 24" fill="none" xmlns="http://www.w3.org/2000/svg">
<path fill-rule="evenodd" clip-rule="evenodd" d="M3.75 3.37502H10.875C11.0821 3.37502 11.25 3.5429 11.25 3.75002V10.875C11.25 11.0821 11.0821 11.25 10.875 11.25H3.75C3.54288 11.25 3.375 11.0821 3.375 10.875V3.75002C3.375 3.5429 3.54288 3.37502 3.75 3.37502ZM16.9761 2.78128L21.2187 7.02393C21.3652 7.17037 21.3652 7.40779 21.2187 7.55425L16.9761 11.7969C16.8296 11.9433 16.5922 11.9433 16.4458 11.7969L12.2031 7.55423C12.0567 7.40779 12.0567 7.17037 12.2031 7.02391L16.4458 2.78128C16.5922 2.63484 16.8296 2.63484 16.9761 2.78128ZM3.75 12.75H10.875C11.0821 12.75 11.25 12.9179 11.25 13.125V20.25C11.25 20.4571 11.0821 20.625 10.875 20.625H3.75C3.54288 20.625 3.375 20.4571 3.375 20.25V13.125C3.375 12.9179 3.54288 12.75 3.75 12.75ZM13.125 12.75H20.25C20.4571 12.75 20.625 12.9179 20.625 13.125V20.25C20.625 20.4571 20.4571 20.625 20.25 20.625H13.125C12.9179 20.625 12.75 20.4571 12.75 20.25V13.125C12.75 12.9179 12.9179 12.75 13.125 12.75Z" fill="white"/>
</svg>
