<svg width="20" height="20" viewBox="0 0 20 20" fill="none" xmlns="http://www.w3.org/2000/svg">
<path d="M3.33325 3.33334H4.68825C5.16075 3.33334 5.39659 3.33334 5.58492 3.43668C5.66256 3.47942 5.73289 3.53428 5.79325 3.59918C5.93909 3.75668 5.99659 3.98584 6.11075 4.44418L6.26242 5.05001C6.34659 5.38668 6.38909 5.55501 6.45409 5.69668C6.5652 5.93842 6.73257 6.15005 6.9422 6.31388C7.15184 6.4777 7.39765 6.58896 7.65909 6.63834C7.81242 6.66668 7.98575 6.66668 8.33325 6.66668" stroke="white" stroke-width="2" stroke-linecap="round"/>
<path d="M14.9999 14.1667H6.29153C6.1707 14.1667 6.10987 14.1667 6.0632 14.1617C5.94749 14.1488 5.83578 14.1118 5.73525 14.053C5.63472 13.9943 5.54761 13.9152 5.47954 13.8207C5.41147 13.7263 5.36395 13.6186 5.34004 13.5047C5.31612 13.3907 5.31635 13.273 5.3407 13.1592C5.35986 13.0854 5.38238 13.0126 5.4082 12.9409C5.45153 12.8125 5.47237 12.7484 5.49653 12.6909C5.61516 12.4067 5.81017 12.161 6.05994 11.981C6.30971 11.8009 6.60447 11.6936 6.91153 11.6709C6.9732 11.6667 7.04153 11.6667 7.1757 11.6667H11.6665" stroke="white" stroke-width="2" stroke-linecap="round" stroke-linejoin="round"/>
<path d="M12.1067 11.6667H9.14502C8.13169 11.6667 7.62502 11.6667 7.23419 11.4375C7.06941 11.3406 6.92254 11.216 6.80002 11.0692C6.50835 10.7209 6.42502 10.2209 6.25919 9.22169C6.09002 8.20919 6.00585 7.70252 6.20669 7.32752C6.29023 7.17102 6.40613 7.0341 6.54669 6.92585C6.88335 6.66669 7.39669 6.66669 8.42335 6.66669H13.97C15.1784 6.66669 15.7825 6.66669 16.0275 7.06169C16.2717 7.45752 16.0009 7.99752 15.4609 9.07835L15.0884 9.82419C14.64 10.7209 14.4159 11.1692 14.0134 11.4175C13.61 11.6667 13.1092 11.6667 12.1067 11.6667Z" stroke="white" stroke-width="2" stroke-linecap="round"/>
<path d="M14.1666 17.5C14.6268 17.5 14.9999 17.1269 14.9999 16.6667C14.9999 16.2064 14.6268 15.8333 14.1666 15.8333C13.7063 15.8333 13.3333 16.2064 13.3333 16.6667C13.3333 17.1269 13.7063 17.5 14.1666 17.5Z" fill="white"/>
<path d="M7.49984 17.5C7.96007 17.5 8.33317 17.1269 8.33317 16.6667C8.33317 16.2064 7.96007 15.8333 7.49984 15.8333C7.0396 15.8333 6.6665 16.2064 6.6665 16.6667C6.6665 17.1269 7.0396 17.5 7.49984 17.5Z" fill="white"/>
</svg>
