<svg width="20" height="20" viewBox="0 0 20 20" fill="none" xmlns="http://www.w3.org/2000/svg">
<path d="M10.0001 17.5L8.79175 16.4167C7.38897 15.1528 6.22925 14.0625 5.31258 13.1458C4.39591 12.2292 3.66675 11.4061 3.12508 10.6767C2.58341 9.94723 2.20508 9.27723 1.99008 8.66668C1.77508 8.05612 1.6673 7.43112 1.66675 6.79168C1.66675 5.48612 2.10425 4.39584 2.97925 3.52084C3.85425 2.64584 4.94453 2.20834 6.25008 2.20834C6.9723 2.20834 7.6598 2.36112 8.31258 2.66668C8.96536 2.97223 9.52786 3.40279 10.0001 3.95834C10.4723 3.40279 11.0348 2.97223 11.6876 2.66668C12.3404 2.36112 13.0279 2.20834 13.7501 2.20834C15.0556 2.20834 16.1459 2.64584 17.0209 3.52084C17.8959 4.39584 18.3334 5.48612 18.3334 6.79168C18.3334 7.43057 18.2259 8.05557 18.0109 8.66668C17.7959 9.27779 17.4173 9.94779 16.8751 10.6767C16.3329 11.4056 15.6037 12.2286 14.6876 13.1458C13.7715 14.0631 12.6117 15.1533 11.2084 16.4167L10.0001 17.5Z" fill="white"/>
</svg>
