<svg width="24" height="24" viewBox="0 0 24 24" fill="none" xmlns="http://www.w3.org/2000/svg">
<path fill-rule="evenodd" clip-rule="evenodd" d="M7.94002 13.06C7.65912 12.7788 7.50134 12.3975 7.50134 12C7.50134 11.6025 7.65912 11.2213 7.94002 10.94L13.596 5.28201C13.8774 5.00075 14.259 4.84279 14.6569 4.84288C14.8539 4.84293 15.0489 4.88177 15.2309 4.95721C15.4129 5.03264 15.5783 5.14317 15.7175 5.28251C15.8568 5.42184 15.9672 5.58724 16.0426 5.76926C16.1179 5.95128 16.1567 6.14636 16.1567 6.34336C16.1566 6.54036 16.1178 6.73542 16.0423 6.91741C15.9669 7.09939 15.8564 7.26474 15.717 7.40401L11.122 12L15.718 16.596C15.8614 16.7343 15.9757 16.8998 16.0544 17.0827C16.1331 17.2657 16.1746 17.4625 16.1764 17.6617C16.1782 17.8609 16.1404 18.0584 16.065 18.2428C15.9897 18.4272 15.8784 18.5947 15.7376 18.7356C15.5968 18.8765 15.4294 18.9879 15.2451 19.0635C15.0608 19.139 14.8633 19.177 14.6641 19.1754C14.465 19.1737 14.2681 19.1325 14.0851 19.0539C13.902 18.9754 13.7365 18.8612 13.598 18.718L7.93802 13.06H7.94002Z" fill="white"/>
</svg>
