<svg width="20" height="20" viewBox="0 0 20 20" fill="none" xmlns="http://www.w3.org/2000/svg">
<path fill-rule="evenodd" clip-rule="evenodd" d="M9.43333 5.14667H4.16667C3.24583 5.14667 2.5 5.9375 2.5 6.91167V15.735C2.5 16.71 3.24583 17.5 4.16667 17.5H13.3333C14.2542 17.5 15 16.71 15 15.735V9.27667L11.7383 12.73C11.4535 13.0346 11.0826 13.2451 10.675 13.3333L8.44083 13.8067C6.9825 14.115 5.6975 12.7542 5.98917 11.2108L6.43583 8.845C6.51667 8.41833 6.715 8.02583 7.00583 7.71833L9.43333 5.14667Z" fill="white"/>
<path fill-rule="evenodd" clip-rule="evenodd" d="M16.5383 3.59833C16.454 3.38502 16.3305 3.18941 16.1741 3.02166C16.0203 2.8576 15.835 2.72636 15.6291 2.63583C15.4263 2.54678 15.2073 2.50079 14.9858 2.50079C14.7643 2.50079 14.5452 2.54678 14.3425 2.63583C14.1366 2.72636 13.9512 2.8576 13.7975 3.02166L13.3425 3.50333L15.7191 6.01999L16.1741 5.5375C16.3322 5.37102 16.4559 5.17507 16.5383 4.96083C16.71 4.52288 16.71 4.03627 16.5383 3.59833ZM14.5416 7.26749L12.1641 4.74999L8.18329 8.96666C8.12455 9.02924 8.08494 9.10731 8.06912 9.19166L7.62245 11.5583C7.56412 11.8667 7.82162 12.1383 8.11245 12.0767L10.3475 11.6042C10.4288 11.586 10.5028 11.5439 10.56 11.4833L14.5416 7.26749Z" fill="white"/>
</svg>
