<svg width="40" height="41" viewBox="0 0 40 41" fill="none" xmlns="http://www.w3.org/2000/svg">
<path d="M8.53128 35.4031C7.62054 35.4031 6.84116 35.0791 6.19315 34.4311C5.54514 33.7831 5.22059 33.0031 5.21948 32.0913V8.90869C5.21948 7.99795 5.54404 7.21857 6.19315 6.57056C6.84226 5.92255 7.62164 5.598 8.53128 5.59689H31.7139C32.6246 5.59689 33.4046 5.92145 34.0537 6.57056C34.7028 7.21968 35.0268 7.99905 35.0257 8.90869V32.0913C35.0257 33.002 34.7017 33.782 34.0537 34.4311C33.4057 35.0802 32.6257 35.4042 31.7139 35.4031H8.53128ZM10.1872 28.7795H30.058L23.8484 20.5L18.8807 27.1236L15.1549 22.1559L10.1872 28.7795Z" fill="white"/>
</svg>
